<?xml version="1.0" encoding="utf-8"?>
<!-- Generator: Adobe Illustrator 27.0.0, SVG Export Plug-In . SVG Version: 6.00 Build 0)  -->
<svg version="1.1" id="Pictogram" xmlns="http://www.w3.org/2000/svg" xmlns:xlink="http://www.w3.org/1999/xlink" x="0px" y="0px"
	 viewBox="0 0 144 144" style="enable-background:new 0 0 144 144;" xml:space="preserve">
<style type="text/css">
	.st0{fill:none;}
</style>
<g>
	<path d="M99,97.7c-2.9,0-5.2,2.3-5.2,5.2s2.3,5.2,5.2,5.2s5.2-2.3,5.2-5.2S101.9,97.7,99,97.7z M99,105.3c-1.3,0-2.4-1.1-2.4-2.4
		s1.1-2.4,2.4-2.4c1.3,0,2.4,1.1,2.4,2.4C101.4,104.2,100.3,105.3,99,105.3z"/>
	<path d="M30.3,101.3l25.5-25.5l-7.3-7.3L23.1,94c-2,2-2,5.3,0,7.3C25.1,103.3,28.3,103.3,30.3,101.3z"/>
	<path d="M57.6,77.7l-47.3,47.3c-2,2-2,5.3,0,7.3s5.3,2,7.3,0l47.3-47.3L57.6,77.7z"/>
	<circle cx="98.7" cy="34.7" r="9"/>
	<path d="M132.1,26.2c-2-2.8-4.7-4.1-7.4-4.1s-5.3,1.4-7.4,4.1c-4.1,5.5-4.1,14.5,0,20c1.7,2.3,3.8,3.6,6,4v10.7h-17.1l-49-48.8
		c-2-2-5.3-2-7.3,0c-2,2-2,5.3,0,7.3L74,43.1L52.2,64.9l16.4,16.4l21.8-21.8l10.2,10.2c1,1,2.3,1.5,3.6,1.5h20.6
		c1.3,0,2.6-0.5,3.7-1.5c2-2,2-5.3,0-7.3c-0.7-0.7-1.5-1.1-2.3-1.3V50.2c2.2-0.4,4.3-1.7,6-4C136.2,40.7,136.2,31.7,132.1,26.2z
		 M129.9,44.6c-1.4,2-3.3,3-5.2,3c-1.9,0-3.7-1.1-5.2-3c-1.6-2.2-2.5-5.2-2.5-8.4s0.9-6.2,2.5-8.4c1.4-2,3.3-3,5.2-3
		c1.9,0,3.7,1.1,5.2,3c1.6,2.2,2.5,5.2,2.5,8.4S131.5,42.4,129.9,44.6z"/>
</g>
<rect class="st0" width="144" height="144"/>
</svg>
