<?xml version="1.0" encoding="utf-8"?>
<!-- Generator: Adobe Illustrator 27.0.0, SVG Export Plug-In . SVG Version: 6.00 Build 0)  -->
<svg version="1.1" id="Pictogram" xmlns="http://www.w3.org/2000/svg" xmlns:xlink="http://www.w3.org/1999/xlink" x="0px" y="0px"
	 viewBox="0 0 144 144" style="enable-background:new 0 0 144 144;" xml:space="preserve">
<style type="text/css">
	.st0{fill:none;}
</style>
<g>
	<g>
		<path d="M29.2,98.7l25.4-25.4L47.4,66L22,91.5c-2,2-2,5.3,0,7.3C24,100.8,27.2,100.8,29.2,98.7z"/>
		<path d="M56.5,75.1L9.2,122.4c-2,2-2,5.3,0,7.3c2,2,5.3,2,7.3,0l47.2-47.2L56.5,75.1z"/>
		<path d="M83.6,34.7c2.5,0,4.7-1,6.4-2.6c1.6-1.6,2.6-3.9,2.6-6.4s-1-4.7-2.6-6.4c-1.6-1.6-3.9-2.6-6.4-2.6c-2.5,0-4.7,1-6.4,2.6
			c-1.6,1.6-2.6,3.9-2.6,6.4s1,4.7,2.6,6.4C78.8,33.7,81.1,34.7,83.6,34.7z"/>
		<path d="M131.2,38.6H49.5c-1.3,0-2.6,0.5-3.6,1.5L31.4,54.6c-2,2-2,5.3,0,7.3c2,2,5.3,2,7.3,0l13-13h12.9L51,62.4l16.3,16.4
			l29.9-29.9h33.9c2.8,0,5.1-2.3,5.1-5.1C136.4,40.9,134,38.6,131.2,38.6z"/>
	</g>
	<path d="M59.1,113.3c4.2,0,7.6,3.4,7.6,7.6s-3.4,7.6-7.6,7.6c-4.2,0-7.6-3.4-7.6-7.6S55,113.3,59.1,113.3 M59.1,110.6
		c-5.7,0-10.3,4.6-10.3,10.3s4.6,10.3,10.3,10.3s10.3-4.6,10.3-10.3C69.4,115.2,64.8,110.6,59.1,110.6L59.1,110.6z"/>
</g>
<rect class="st0" width="144" height="144"/>
</svg>
